<svg width="22" height="22" viewBox="0 0 22 22" fill="none" xmlns="http://www.w3.org/2000/svg">
<path d="M1.6536 0.320404C1.38835 0.320474 1.12915 0.399645 0.909141 0.547797C0.689128 0.695948 0.518297 0.906348 0.418487 1.1521C0.318678 1.39785 0.294426 1.66778 0.348831 1.92738C0.403236 2.18699 0.533827 2.42447 0.723908 2.60947L9.11453 11.0001L0.723908 19.3907C0.595943 19.5136 0.493779 19.6607 0.423399 19.8236C0.353019 19.9864 0.315839 20.1617 0.314034 20.339C0.312229 20.5164 0.345837 20.6924 0.412889 20.8566C0.479941 21.0209 0.57909 21.1701 0.704529 21.2955C0.829967 21.4209 0.979173 21.5201 1.14341 21.5872C1.30765 21.6542 1.48361 21.6878 1.661 21.686C1.83839 21.6842 2.01363 21.647 2.17647 21.5766C2.33931 21.5063 2.48646 21.4041 2.60932 21.2761L10.9999 12.8855L19.3906 21.2761C19.5134 21.4041 19.6606 21.5063 19.8234 21.5766C19.9863 21.647 20.1615 21.6842 20.3389 21.686C20.5163 21.6878 20.6923 21.6542 20.8565 21.5872C21.0207 21.5201 21.1699 21.421 21.2954 21.2955C21.4208 21.1701 21.52 21.0209 21.587 20.8566C21.6541 20.6924 21.6877 20.5164 21.6859 20.339C21.6841 20.1617 21.6469 19.9864 21.5765 19.8236C21.5061 19.6607 21.404 19.5136 21.276 19.3907L12.8854 11.0001L21.276 2.60947C21.4687 2.42218 21.6003 2.18106 21.6535 1.9177C21.7068 1.65434 21.6793 1.38103 21.5746 1.13358C21.4698 0.886135 21.2928 0.676096 21.0667 0.53099C20.8405 0.385885 20.5758 0.312483 20.3072 0.320404C19.9608 0.330725 19.6321 0.475498 19.3906 0.72405L10.9999 9.11468L2.60932 0.72405C2.48507 0.596324 2.33648 0.494797 2.17233 0.425468C2.00817 0.356139 1.83179 0.320414 1.6536 0.320404Z" fill="#555555"/>
</svg>
