<svg width="24" height="24" viewBox="0 0 24 24" fill="none" xmlns="http://www.w3.org/2000/svg">
<path d="M8.65602 0.509521C4.164 0.509521 0.497498 4.19374 0.497498 8.70746C0.497498 13.2212 4.164 16.9054 8.65602 16.9054C10.6933 16.9054 12.5546 16.1418 13.9873 14.8925L14.4835 15.3912V16.9054L20.994 23.4473C21.6373 24.0937 22.6816 24.0937 23.325 23.4473C23.9683 22.8008 23.9683 21.7515 23.325 21.105L16.8145 14.5631H15.3076L14.8113 14.0645C16.0547 12.6249 16.8145 10.7546 16.8145 8.70746C16.8145 4.19374 13.148 0.509521 8.65602 0.509521ZM8.65602 2.85179C11.8883 2.85179 14.4835 5.45959 14.4835 8.70746C14.4835 11.9553 11.8883 14.5631 8.65602 14.5631C5.42377 14.5631 2.8285 11.9553 2.8285 8.70746C2.8285 5.45959 5.42377 2.85179 8.65602 2.85179Z" fill="#7A7A7A"/>
</svg>
