<svg width="518" height="731" viewBox="0 0 518 731" fill="none" xmlns="http://www.w3.org/2000/svg">
<path d="M505.178 179.572C499.524 173.916 490.451 173.916 484.797 179.572C479.143 173.916 470.071 173.916 464.417 179.572C458.763 185.228 458.763 194.303 464.417 199.959L484.797 220.346L505.178 199.959C510.832 194.303 510.832 185.228 505.178 179.572Z" fill="white"/>
<path d="M327.143 4.24185C321.489 -1.41395 312.416 -1.41395 306.762 4.24185C301.108 -1.41395 292.036 -1.41395 286.382 4.24185C280.728 9.89766 280.728 18.9732 286.382 24.6291L306.894 44.8847L327.274 24.4975C332.797 18.8417 332.797 9.76613 327.143 4.24185Z" fill="white"/>
<path d="M370.928 80.5294C368.693 78.2934 365.011 78.2934 362.776 80.5294C360.541 78.2934 356.859 78.2934 354.624 80.5294C352.388 82.7654 352.388 86.4483 354.624 88.6843L362.776 96.8392L370.928 88.6843C373.164 86.4483 373.164 82.7654 370.928 80.5294Z" fill="white"/>
<path d="M25.7716 257.569C23.5363 255.333 19.8546 255.333 17.6193 257.569C15.384 255.333 11.7023 255.333 9.467 257.569C7.2317 259.805 7.2317 263.488 9.467 265.724L17.6193 273.879L25.7716 265.724C28.0069 263.488 28.0069 259.805 25.7716 257.569Z" fill="white"/>
<path d="M468.493 258.358C466.257 256.122 462.576 256.122 460.34 258.358C458.105 256.122 454.423 256.122 452.188 258.358C449.953 260.594 449.953 264.277 452.188 266.513L460.34 274.668L468.493 266.513C470.728 264.277 470.728 260.594 468.493 258.358Z" fill="white"/>
<path d="M92.6991 77.2412C87.0451 71.5854 77.9724 71.5854 72.3184 77.2412C66.6645 71.5854 57.5918 71.5854 51.9378 77.2412C46.2838 82.897 46.2838 91.9726 51.9378 97.6284L72.3184 118.016L92.6991 97.6284C98.2216 91.9726 98.2216 82.897 92.6991 77.2412Z" fill="white"/>
<path d="M81.9172 445.526V173.784C81.9172 161.947 91.5159 152.214 103.481 152.214C115.315 152.214 125.045 161.815 125.045 173.784V445.526H81.9172V445.526Z" fill="#ECC59A"/>
<path d="M167.911 445.526V173.784C167.911 161.947 177.509 152.214 189.475 152.214C201.309 152.214 211.039 161.815 211.039 173.784V445.526H167.911V445.526Z" fill="#ECC59A"/>
<path d="M210.907 506.03V228.764C210.907 216.926 220.506 207.193 232.471 207.193C244.305 207.193 254.035 216.795 254.035 228.764V506.03H210.907Z" fill="#E3B78F"/>
<path d="M124.914 445.526V146.821C124.914 134.983 134.513 125.25 146.478 125.25C158.312 125.25 168.042 134.851 168.042 146.821V445.526H124.914V445.526Z" fill="#E3B78F"/>
<path d="M103.218 730.947V472.884C103.218 472.884 46.2839 464.598 46.2839 396.991L0 310.444C0 310.444 39.1835 280.85 65.2182 317.547L96.9069 367.134C96.9069 367.134 99.1422 366.871 102.955 366.608C185.004 362.004 253.772 428.164 253.772 510.371V730.947H103.218Z" fill="#FFDAAB"/>
<path d="M258.243 525.365H97.8273V625.46H258.243V525.365Z" fill="#F1F2F2"/>
<path d="M258.112 565.35H81.9172V730.947H258.112V565.35Z" fill="#FEE200"/>
<path d="M258.112 525.365H211.039V625.46H258.112V525.365Z" fill="#E6E7E8"/>
<path d="M258.112 565.35H204.333V730.947H258.112V565.35Z" fill="#F1C411"/>
<path d="M204.333 630.326C212.611 630.326 219.323 623.613 219.323 615.332C219.323 607.051 212.611 600.337 204.333 600.337C196.054 600.337 189.343 607.051 189.343 615.332C189.343 623.613 196.054 630.326 204.333 630.326Z" fill="black"/>
<path d="M435.884 445.526V173.784C435.884 161.947 426.285 152.214 414.32 152.214C402.486 152.214 392.755 161.815 392.755 173.784V445.526H435.884V445.526Z" fill="#ECC59A"/>
<path d="M349.89 445.526V173.784C349.89 161.947 340.292 152.214 328.326 152.214C316.492 152.214 306.762 161.815 306.762 173.784V445.526H349.89V445.526Z" fill="#ECC59A"/>
<path d="M306.894 506.03V228.764C306.894 216.926 297.295 207.193 285.33 207.193C273.496 207.193 263.766 216.795 263.766 228.764V506.03H306.894Z" fill="#E3B78F"/>
<path d="M392.887 445.526V146.821C392.887 134.983 383.288 125.25 371.323 125.25C359.489 125.25 349.759 134.851 349.759 146.821V445.526H392.887V445.526Z" fill="#E3B78F"/>
<path d="M414.583 730.947V472.884C414.583 472.884 471.517 464.598 471.517 396.991L517.801 310.444C517.801 310.444 478.617 280.85 452.583 317.547L420.894 367.134C420.894 367.134 418.659 366.871 414.845 366.608C332.797 362.004 264.028 428.164 264.028 510.371V730.947H414.583Z" fill="#FFDAAB"/>
<path d="M418.527 525.365H258.112V625.46H418.527V525.365Z" fill="#F1F2F2"/>
<path d="M418.396 525.365H371.323V625.46H418.396V525.365Z" fill="#E6E7E8"/>
<path d="M434.306 565.35H258.112V730.947H434.306V565.35Z" fill="#FEE200"/>
<path d="M311.89 630.326C320.169 630.326 326.88 623.613 326.88 615.332C326.88 607.051 320.169 600.337 311.89 600.337C303.612 600.337 296.901 607.051 296.901 615.332C296.901 623.613 303.612 630.326 311.89 630.326Z" fill="black"/>
<path d="M434.437 565.35H380.659V730.947H434.437V565.35Z" fill="#F1C411"/>
<path d="M204.464 74.3476C219.061 74.3476 230.893 68.9299 230.893 62.2468C230.893 55.5637 219.061 50.146 204.464 50.146C189.868 50.146 178.035 55.5637 178.035 62.2468C178.035 68.9299 189.868 74.3476 204.464 74.3476Z" fill="white"/>
<g clip-path="url(#clip0_88_599)">
<path d="M379.117 139.986C309.477 88.108 266.326 157.548 259.009 170.719C251.683 157.557 208.542 88.1172 138.892 139.986C115.648 157.3 77.9444 233.196 161.824 302.783C181.969 319.49 223.845 348.607 245.695 370.495C250.133 374.684 254.379 379.488 258.257 384.898C258.523 385.265 258.743 385.642 259 386.009C259.257 385.642 259.486 385.265 259.743 384.898C263.63 379.479 267.885 374.666 272.332 370.468C294.192 348.58 336.04 319.481 356.176 302.783C440.056 233.205 402.352 157.3 379.108 139.986H379.117Z" fill="#F00000"/>
</g>
<defs>
<clipPath id="clip0_88_599">
<rect width="298" height="265" fill="white" transform="translate(110 121)"/>
</clipPath>
</defs>
</svg>
