<svg width="18" height="18" viewBox="0 0 18 18" fill="none" xmlns="http://www.w3.org/2000/svg">
<path d="M16.69 8.99999L17.2084 7.39999C17.5959 6.20249 17.0567 4.89999 15.9359 4.32749L14.4384 3.56249L13.6734 2.06499C13.1009 0.944161 11.7984 0.404161 10.6009 0.792494L9.00002 1.30999L7.40002 0.791661C6.20252 0.404161 4.90002 0.943328 4.32752 2.06416L3.56169 3.56166L2.06419 4.32749C0.943358 4.89999 0.404192 6.20249 0.791692 7.39999L1.31002 8.99999L0.791692 10.6C0.404192 11.7975 0.943358 13.1 2.06419 13.6725L3.56169 14.4375L4.32669 15.935C4.89919 17.0558 6.20169 17.5958 7.39919 17.2075L9.00002 16.69L10.6 17.2083C11.7975 17.5958 13.1 17.0567 13.6725 15.9358L14.4375 14.4383L15.935 13.6733C17.0559 13.1008 17.5959 11.7983 17.2075 10.6008L16.69 8.99999ZM7.57752 12.0892L5.66669 10.1783C5.34169 9.85333 5.34169 9.32499 5.66669 8.99999C5.99169 8.67499 6.52002 8.67499 6.84502 8.99999L8.16669 10.3217L11.9884 6.49999C12.3134 6.17499 12.8417 6.17499 13.1667 6.49999C13.4917 6.82499 13.4917 7.35333 13.1667 7.67833L8.75586 12.0892C8.43086 12.4142 7.90252 12.4142 7.57752 12.0892Z" fill="white"/>
</svg>
