<svg width="43" height="46" viewBox="0 0 43 46" fill="none" xmlns="http://www.w3.org/2000/svg">
<path d="M37.7518 0C37.4396 0 37.1275 0.130369 36.8899 0.389211L34.4485 3.0333L39.3313 8.32995L41.7689 5.68163C42.2461 5.16394 42.2461 4.32724 41.7689 3.81172L38.6137 0.389211C38.3751 0.130369 38.0641 0 37.7518 0ZM32.7208 4.90744L18.1658 20.7001V25.9925H23.0448L37.6036 10.1999L32.7208 4.90744ZM4.1881 6.49812C1.98161 6.49812 0.194458 8.43673 0.194458 10.8302V41.1548C0.194458 43.5483 1.98161 45.4869 4.1881 45.4869H32.1436C34.35 45.4869 36.1372 43.5483 36.1372 41.1548V21.6604C36.1372 20.4648 35.2426 19.4944 34.1404 19.4944C33.0361 19.4944 32.1436 20.4648 32.1436 21.6604L32.1397 41.1548H4.1881V15.1623H17.6237L25.611 6.49812H4.1881Z" fill="#7490BF"/>
</svg>
