<svg width="50" height="50" viewBox="0 0 50 50" fill="none" xmlns="http://www.w3.org/2000/svg">
<circle cx="25" cy="25" r="24.5" fill="white" stroke="black"/>
<path d="M21.6217 12.0496C16.4134 12.0496 12.1622 16.1236 12.1622 21.1149C12.1622 26.1062 16.4134 30.1802 21.6217 30.1802C23.9838 30.1802 26.142 29.3359 27.8031 27.9543L28.3784 28.5057V30.1802L35.927 37.4142C36.673 38.1291 37.8838 38.1291 38.6297 37.4142C39.3757 36.6994 39.3757 35.539 38.6297 34.8241L31.0812 27.5901H29.3339L28.7585 27.0387C30.2001 25.4468 31.0812 23.3786 31.0812 21.1149C31.0812 16.1236 26.83 12.0496 21.6217 12.0496ZM21.6217 14.6397C25.3693 14.6397 28.3784 17.5234 28.3784 21.1149C28.3784 24.7064 25.3693 27.5901 21.6217 27.5901C17.874 27.5901 14.8649 24.7064 14.8649 21.1149C14.8649 17.5234 17.874 14.6397 21.6217 14.6397Z" fill="#171717"/>
</svg>
