<svg width="30" height="31" viewBox="0 0 30 31" fill="none" xmlns="http://www.w3.org/2000/svg">
<path d="M8.33333 0.5C3.73167 0.5 0 4.23167 0 8.83333V22.1667C0 26.7683 3.73167 30.5 8.33333 30.5H21.6667C26.2683 30.5 30 26.7683 30 22.1667V8.83333C30 4.23167 26.2683 0.5 21.6667 0.5H8.33333ZM25 3.83333C25.92 3.83333 26.6667 4.58 26.6667 5.5C26.6667 6.42 25.92 7.16667 25 7.16667C24.08 7.16667 23.3333 6.42 23.3333 5.5C23.3333 4.58 24.08 3.83333 25 3.83333ZM15 7.16667C19.6017 7.16667 23.3333 10.8983 23.3333 15.5C23.3333 20.1017 19.6017 23.8333 15 23.8333C10.3983 23.8333 6.66667 20.1017 6.66667 15.5C6.66667 10.8983 10.3983 7.16667 15 7.16667ZM15 10.5C13.6739 10.5 12.4021 11.0268 11.4645 11.9645C10.5268 12.9021 10 14.1739 10 15.5C10 16.8261 10.5268 18.0979 11.4645 19.0355C12.4021 19.9732 13.6739 20.5 15 20.5C16.3261 20.5 17.5979 19.9732 18.5355 19.0355C19.4732 18.0979 20 16.8261 20 15.5C20 14.1739 19.4732 12.9021 18.5355 11.9645C17.5979 11.0268 16.3261 10.5 15 10.5Z" fill="#FA461E"/>
</svg>
