<svg width="32" height="29" viewBox="0 0 32 29" fill="none" xmlns="http://www.w3.org/2000/svg">
<path d="M29.146 0.225251C28.6885 0.245154 28.2686 0.376744 27.8997 0.522126C27.559 0.656328 26.3353 1.17066 24.3867 1.98795C22.4382 2.80524 19.8562 3.88886 17.104 5.04638C11.5997 7.36141 5.41421 9.96553 2.24479 11.2993C2.13595 11.3447 1.69393 11.48 1.20573 11.8529C0.716399 12.2266 0.172852 13.0377 0.172852 13.9248C0.172852 14.6404 0.530074 15.3692 0.961426 15.7865C1.39278 16.2037 1.82994 16.3988 2.19531 16.5441C3.26421 16.9698 6.56727 18.2889 8.00293 18.8634C8.50587 20.3707 9.68713 23.9209 9.96354 24.7948H9.96045C10.1853 25.506 10.4045 25.9695 10.7088 26.3564C10.861 26.5499 11.0426 26.7252 11.2655 26.8636C11.351 26.9167 11.4456 26.9579 11.5407 26.9966C11.5539 27.0022 11.5676 27.0036 11.5809 27.0089L11.5438 26.9997C11.5714 27.0108 11.5961 27.0271 11.6242 27.0368C11.67 27.0525 11.7017 27.052 11.7633 27.0646C11.9803 27.1313 12.1968 27.1759 12.3973 27.1759C13.258 27.1759 13.7858 26.709 13.7858 26.709L13.8198 26.6842L17.5369 23.5392L22.089 27.748C22.1704 27.8631 22.8213 28.7469 24.3311 28.7469C25.2306 28.7469 25.9449 28.3047 26.3999 27.8377C26.8549 27.3707 27.1384 26.8928 27.2658 26.2451V26.2389V26.2358C27.3543 25.7761 31.7251 3.83723 31.7251 3.83723L31.7158 3.87434C31.8515 3.26896 31.8915 2.68352 31.7313 2.08691C31.5711 1.49029 31.1387 0.908064 30.618 0.60253C30.0973 0.296996 29.6035 0.205348 29.146 0.225251ZM28.5213 3.69189C28.3496 4.55385 24.46 24.0949 24.2074 25.3916L19.6862 21.2137C18.5208 20.1363 16.7036 20.0984 15.4928 21.1209L13.1859 23.0723L14.4167 18.2604C14.4167 18.2604 22.9074 9.66585 23.4188 9.16552C23.8305 8.76494 23.9167 8.62451 23.9167 8.48518C23.9167 8.29993 23.8213 8.16666 23.6012 8.16666C23.4033 8.16666 23.1345 8.35631 22.992 8.44498C21.1736 9.5787 13.3877 14.0158 9.61719 16.1606C9.47556 16.0758 9.33625 15.9878 9.18115 15.9256C7.94397 15.4305 5.56604 14.4771 4.17448 13.9217C7.45873 12.5395 13.0885 10.1709 18.3317 7.96565C21.0834 6.80833 23.6646 5.72373 25.6113 4.90722C27.2546 4.21798 28.1118 3.86111 28.5213 3.69189ZM24.1579 25.6204H24.161C24.1609 25.6209 24.158 25.6323 24.1579 25.6328C24.1605 25.6193 24.156 25.6302 24.1579 25.6204Z" fill="#0088CC"/>
</svg>
