<svg width="47" height="30" viewBox="0 0 47 30" fill="none" xmlns="http://www.w3.org/2000/svg">
<path d="M36.6309 9.3825C34.9349 3.855 29.669 0 23.5002 0C19.0117 0 14.8052 2.13375 12.2555 5.63438C4.85691 5.895 -0.949548 12.2287 0.129493 19.5712C1.02249 25.6425 6.7467 30 13.1485 30H17.6252H21.5419V18.75H17.4549H17.3021C16.5736 18.75 16.2094 17.9081 16.7244 17.415L22.9225 11.4806C23.2417 11.175 23.7587 11.175 24.0779 11.4806L30.2761 17.415C30.7911 17.9081 30.4269 18.75 29.6984 18.75H29.5456H25.4586V30H29.3752H35.7712C41.3348 30 46.3207 26.1506 46.9337 20.8575C47.6347 14.7806 42.784 9.59812 36.6309 9.3825Z" fill="#002663"/>
</svg>
